<svg width="20" height="20" viewBox="0 0 20 20" fill="none" xmlns="http://www.w3.org/2000/svg">
<path d="M9.96205 1C11.4278 1 12.6161 2.18824 12.6161 3.65402V16.0394C12.6161 17.5052 11.4278 18.6935 9.96205 18.6935H4.65402C3.18824 18.6935 2 17.5052 2 16.0394V3.65402C2 2.18824 3.18824 1 4.65402 1H9.96205Z" fill="#0BB885"/>
<path d="M15.011 6.12481C14.6655 5.77932 14.1053 5.77932 13.7598 6.12481C13.4143 6.47029 13.4143 7.03044 13.7598 7.37592L15.346 8.96205H7.30801C6.81942 8.96205 6.42334 9.35813 6.42334 9.84672C6.42334 10.3353 6.81942 10.7314 7.30801 10.7314H15.346L13.7598 12.3175C13.4143 12.663 13.4143 13.2231 13.7598 13.5686C14.1053 13.9141 14.6655 13.9141 15.011 13.5686L17.4817 11.0978C18.1727 10.4069 18.1727 9.28657 17.4817 8.5956L15.011 6.12481Z" fill="#98FFE0"/>
</svg>
